<?xml version="1.0" encoding="utf-8"?>

<svg width="400px" height="400px" version="1.1" id="katman_1" xmlns="http://www.w3.org/2000/svg" xmlns:xlink="http://www.w3.org/1999/xlink" x="0px" y="0px"
	 viewBox="0 0 151.9 21.5" style="enable-background:new 0 0 151.9 21.5;" xml:space="preserve">
<g id="Nav-IRELAND">
	<g id="BlackRock_Wordmark_Blk_RGB">
		<path id="Shape" d="M19.3,21.1V0h4.8v21.1H19.3z M112.9,13.2c0-5.1-4-8.3-8.6-8.3c-4.7,0-8.6,3.2-8.6,8.3c0,5.1,4,8.3,8.6,8.3
			S112.9,18.3,112.9,13.2z M108.1,13.2c0,2.7-1.8,4.2-3.9,4.2s-3.9-1.5-3.9-4.2c0-2.7,1.8-4.1,3.9-4.1
			C106.3,9.1,108.1,10.5,108.1,13.2z M17.4,15.1c0-2.4-1.2-4.2-3.4-5c2.1-1.1,2.8-2.6,2.8-4.4c0-3.1-2.2-5.6-7.2-5.6H0v21.1h10
			C15,21.1,17.4,18.6,17.4,15.1z M11.7,6.2c0,1.4-0.9,2.3-2.7,2.3H5V4.1h4C10.6,4.1,11.7,4.8,11.7,6.2z M12.1,14.7
			c0,1.4-1,2.3-2.8,2.3H5v-4.6h4.3C11.1,12.4,12.1,13.3,12.1,14.7z M59.3,9.3C58,6.5,55.5,5,51.8,5c-4.4,0-8.3,2.8-8.3,8.2
			c0,5.3,3.5,8.3,8.3,8.3c3.4,0,6.2-1.3,7.6-4.2l-3.9-2c-0.7,1.3-1.8,2.1-3.5,2.1c-2.2,0-3.7-1.6-3.7-4.2c0-2.6,1.6-4.1,3.6-4.1
			c1.6,0,2.7,0.7,3.5,2.2L59.3,9.3z M130.2,9.3c-1.3-2.8-3.8-4.3-7.5-4.3c-4.4,0-8.3,2.8-8.3,8.2c0,5.3,3.5,8.3,8.3,8.3
			c3.4,0,6.2-1.3,7.6-4.2l-3.9-2c-0.7,1.3-1.8,2.1-3.5,2.1c-2.2,0-3.7-1.6-3.7-4.2c0-2.6,1.6-4.1,3.6-4.1c1.6,0,2.7,0.7,3.5,2.2
			L130.2,9.3z M89.9,21.1l-4-7.1h-3.1v7.1h-5V0h8.9C91.6,0,95,2.3,95,6.9c0,2.9-1.4,5-4,6.2l4.6,8H89.9z M82.8,9.8h3.7
			c2.3,0,3.4-1.3,3.4-2.8c0-1.8-1.1-2.8-3.4-2.8h-3.7V9.8z M42.7,20.9v-3.3c-0.2,0.1-0.5,0.1-0.8,0.1c-0.6,0-0.9-0.3-0.9-0.9v-5.5
			c0-4.1-2.8-6.3-7.3-6.3c-3,0-5.5,1.1-7.1,2.5l2.7,3C30.3,9.6,31.7,9,33,9c2.1,0,3.1,1.1,3.1,2.8v0.5c-1-0.2-2.3-0.5-3.8-0.5
			c-3.8,0-6.3,1.8-6.3,4.9c0,3.1,2.1,4.8,5.3,4.8c2.2,0,4.2-0.9,5.2-2.1c0.6,1.6,2,2,3.3,2C40.7,21.4,41.8,21.2,42.7,20.9z
			 M36.2,15.9c0,1.4-1.4,2.4-3,2.4c-1.5,0-2.2-0.8-2.2-1.8c0-1.1,0.8-1.9,2.5-1.9c1,0,1.9,0.2,2.7,0.3
			C36.2,14.9,36.2,15.9,36.2,15.9z M147.4,21.1l-5.7-9.8l5.3-5.8h-5.3l-5.6,6.2V0h-4.8v21.1h4.8v-3.8l2.3-2.4l3.6,6.2L147.4,21.1
			L147.4,21.1L147.4,21.1z M76.6,21.1l-5.7-9.8l5.3-5.8h-5.4l-5.6,6.2V0h-4.8v21.1h4.8v-3.8l2.3-2.4l3.6,6.2L76.6,21.1
			C76.6,21.2,76.6,21.1,76.6,21.1z M150.4,18.2c1,0,1.6,0.6,1.6,1.6s-0.6,1.6-1.6,1.6s-1.6-0.6-1.6-1.6S149.4,18.2,150.4,18.2z
			 M150.4,21.1c0.8,0,1.3-0.5,1.3-1.3s-0.6-1.3-1.3-1.3c-0.8,0-1.3,0.5-1.3,1.3C149,20.7,149.6,21.1,150.4,21.1z M149.7,19h0.6
			c0.4,0,0.6,0.2,0.6,0.5c0,0.3-0.1,0.4-0.3,0.5l0.3,0.6h-0.3l-0.3-0.5H150v0.5h-0.3L149.7,19L149.7,19z M150,19.2v0.6h0.3
			c0.2,0,0.3-0.1,0.3-0.3c0-0.2-0.1-0.3-0.3-0.3L150,19.2L150,19.2L150,19.2z"/>
	</g>
</g>
</svg>
