<?xml version="1.0" encoding="utf-8"?>
<!-- Generator: Adobe Illustrator 27.8.0, SVG Export Plug-In . SVG Version: 6.00 Build 0)  -->
<svg width="400px" height="400px" version="1.0" id="katman_1" xmlns="http://www.w3.org/2000/svg" xmlns:xlink="http://www.w3.org/1999/xlink" x="0px" y="0px"
	 viewBox="0 0 841.89 595.28" style="enable-background:new 0 0 841.89 595.28;" xml:space="preserve">
<style type="text/css">
	.st0{fill:#3C2010;}
	.st1{fill:#F49739;}
	.st2{fill:#FFFFFF;}
</style>
<path class="st0" d="M674.66,262.16c-7.72,0.09-15.38,1.39-22.7,3.85c-1.58,0.54-4.51,1.77-4.51,1.77l3.72,13.31l0.66-0.22l4-1.23
	c5.38-1.83,11-2.89,16.68-3.15c4.12-0.35,8.23,0.77,11.6,3.15c2.52,2.64,3.8,6.23,3.53,9.87h-13.5c-9.9,0-17.69,2.08-23.15,6.31
	c-5.14,3.76-8.08,9.82-7.85,16.18c-0.18,5.86,2.29,11.48,6.72,15.32c4.44,3.65,10.02,5.6,15.77,5.52h0.98
	c5.2,0.16,10.37-0.7,15.23-2.55c2.02-0.83,3.97-1.82,5.83-2.96v5.49h15.2v-44.15c0.21-6.76-2.23-13.33-6.78-18.32
	C690.49,264.6,682.66,261.62,674.66,262.16z M687.68,304.13v5.93c-2.19,2.45-4.82,4.46-7.76,5.93c-2.92,1.58-6.15,2.54-9.46,2.81
	c-8.23,0.54-12.99-2.18-12.99-7.28c0-2.71,2.68-4.95,5.36-5.96c4.2-1.19,8.57-1.67,12.93-1.42H687.68z"/>
<path class="st0" d="M602.8,261.97c-5.85-0.1-11.64,1.2-16.87,3.82v-3.82h-16.24v91.45h16.24V329.1c5.24,2.6,11.02,3.9,16.87,3.78
	c9.33,0.39,18.39-3.18,24.94-9.84c6.41-6.95,9.81-16.16,9.46-25.6c0.34-9.46-3.06-18.67-9.46-25.64
	C621.19,265.15,612.13,261.58,602.8,261.97z M590.37,313.56c-1.89-1.76-3.38-3.91-4.35-6.31c-1.22-3.11-1.8-6.44-1.7-9.78
	c-0.09-3.35,0.49-6.68,1.7-9.81c2.62-6.98,9.5-11.42,16.93-10.94c4.64-0.13,9.15,1.52,12.61,4.6c4.25,4.24,6.48,10.09,6.12,16.08
	c0.42,6.05-1.8,11.98-6.09,16.27c-1.85,1.55-4,2.71-6.31,3.41c-4.28,1.55-8.96,1.55-13.24,0C593.93,316.32,592,315.12,590.37,313.56
	z"/>
<path class="st0" d="M762.13,241.44v24.34c-5.23-2.61-11.02-3.92-16.87-3.82c-9.34-0.38-18.4,3.2-24.94,9.87
	c-6.41,6.95-9.81,16.16-9.46,25.6c-0.35,9.45,3.05,18.65,9.46,25.6c6.55,6.66,15.61,10.23,24.94,9.84
	c5.85,0.11,11.63-1.18,16.87-3.78v3.78h16.24v-91.45L762.13,241.44z M763.8,297.51c0.09,3.35-0.49,6.68-1.7,9.81
	c-2.61,6.98-9.49,11.43-16.93,10.94c-4.64,0.13-9.15-1.52-12.61-4.6c-4.25-4.24-6.48-10.09-6.12-16.08
	c-0.42-6.05,1.8-11.98,6.09-16.27c1.78-1.51,3.84-2.66,6.05-3.37c4.29-1.51,8.96-1.51,13.24,0c2.2,0.74,4.21,1.95,5.9,3.53
	c1.89,1.76,3.38,3.91,4.35,6.31C763.28,290.86,763.87,294.18,763.8,297.51z"/>
<polygon class="st0" points="562.12,274.49 552.06,261.72 516.62,289.59 516.62,241.44 500.35,241.44 500.35,332.89 516.62,332.89 
	516.62,310.28 525.22,303.5 550.58,333.17 562.94,322.64 538.03,293.44 "/>
<path class="st0" d="M379.67,261.97c-9.65-0.43-19.05,3.14-25.98,9.87c-6.53,6.89-10,16.12-9.62,25.6
	c-0.42,9.45,2.99,18.67,9.46,25.57c14.86,13.11,37.17,13.11,52.03,0c6.53-6.88,9.99-16.1,9.62-25.57c0.37-9.48-3.1-18.71-9.62-25.6
	C398.65,265.14,389.29,261.57,379.67,261.97z M392.66,313.52c-1.84,1.58-3.99,2.77-6.31,3.5c-4.38,1.51-9.15,1.51-13.53,0
	c-2.31-0.72-4.46-1.9-6.31-3.47c-4.41-4.22-6.72-10.18-6.31-16.27c-0.39-6.02,1.92-11.9,6.31-16.05c7.55-6.14,18.37-6.14,25.92,0
	c4.39,4.14,6.7,10.03,6.31,16.05C399.22,303.33,396.99,309.28,392.66,313.52z"/>
<path class="st0" d="M456.42,261.97c-9.65-0.43-19.05,3.14-25.98,9.87c-6.48,6.91-9.89,16.14-9.46,25.6
	c-0.42,9.45,2.99,18.67,9.46,25.57c14.87,13.12,37.19,13.12,52.06,0c6.47-6.9,9.88-16.12,9.46-25.57
	c1.14-18.46-12.91-34.35-31.36-35.48c-1.42-0.09-2.85-0.08-4.27,0.01H456.42z M469.44,313.52c-1.85,1.57-3.99,2.76-6.31,3.5
	c-4.38,1.51-9.15,1.51-13.53,0c-2.31-0.73-4.45-1.91-6.31-3.47c-4.41-4.22-6.72-10.18-6.31-16.27c-0.4-6.02,1.92-11.91,6.31-16.05
	c7.54-6.14,18.35-6.14,25.89,0c4.39,4.14,6.7,10.03,6.31,16.05C475.97,303.33,473.75,309.27,469.44,313.52z"/>
<path class="st0" d="M290.81,297.41c-0.02,3.73,0.81,7.42,2.43,10.78c1.53,2.73,3.69,5.06,6.31,6.78c3.27,2.15,7.12,3.25,11.04,3.15
	c1.99,0,3.97-0.23,5.9-0.69c5.37-1.39,10.19-4.4,13.81-8.61l0.47-0.54l10.5,10.31c-1.92,2.16-4.03,4.15-6.31,5.93
	c-7.16,5.43-15.9,8.35-24.88,8.32c-11.2,0.25-21.86-4.83-28.73-13.69c-4.39-6.4-6.68-14-6.56-21.76
	c-0.13-7.76,2.17-15.36,6.56-21.76c6.89-8.89,17.61-13.98,28.85-13.69c8.94,0,17.63,2.93,24.75,8.32c2.28,1.78,4.39,3.76,6.31,5.93
	l-10.56,10.31l-0.47-0.5c-3.61-4.23-8.43-7.25-13.81-8.64c-1.93-0.47-3.91-0.7-5.9-0.69c-3.91-0.08-7.76,1.01-11.04,3.15
	c-2.61,1.73-4.77,4.05-6.31,6.78C291.58,290,290.77,293.68,290.81,297.41z"/>
<path class="st1" d="M258.3,297.41c0-53.85-43.65-97.5-97.5-97.5c-53.85,0-97.5,43.65-97.5,97.5s43.65,97.5,97.5,97.5l0,0
	C214.65,394.91,258.3,351.26,258.3,297.41z"/>
<path class="st2" d="M206.02,299.33c-0.57,0.03-1.14,0.03-1.7,0l0.66-5.3c0.36-2.64-1.47-5.08-4.1-5.49c-2.63-0.3-5,1.6-5.3,4.23
	c0,0-1.99,15.77-3.78,30.74h-61.8c-2.71,0.22-4.73,2.59-4.51,5.3c0.19,2.41,2.1,4.32,4.51,4.51h60.48
	c-0.85,6.68-1.51,12.17-1.77,14.28h-71.33c0.91-7.28,4.64-37.62,6.05-49.1h-0.5c-11.11-0.05-20.08-9.1-20.02-20.21
	c0.05-11.11,9.1-20.08,20.21-20.02c6.06,0.03,11.78,2.78,15.58,7.5c0.5,0.69,1.2,0.69,1.32-0.28c0.67-11.19,10.3-19.72,21.49-19.05
	c9.77,0.59,17.74,8.07,18.93,17.79c-0.74,1.29-1.38,2.63-1.92,4l8.23,4.57c3.47-10.63,14.89-16.44,25.52-12.97
	c10.63,3.47,16.44,14.89,12.97,25.52c-2.72,8.35-10.51,13.99-19.29,13.97H206.02z"/>
<path class="st0" d="M206.02,249.32c-6.67-0.04-13.15,2.18-18.38,6.31c-6.31-15.09-23.65-22.21-38.74-15.9
	c-5.57,2.33-10.3,6.3-13.54,11.39c-3.87-1.79-8.09-2.72-12.36-2.71c-16.53,0.1-29.84,13.58-29.74,30.11
	c0.08,12.52,7.94,23.67,19.71,27.94l-5.58,45.34c-0.17,1.39,0.24,2.8,1.14,3.88c0.9,1.02,2.2,1.62,3.56,1.64h80.98
	c2.43-0.02,4.46-1.87,4.7-4.29l5.42-44.15c0.95,0,1.92,0,2.9,0c16.54,0,29.96-13.41,29.96-29.96s-13.41-29.96-29.96-29.96
	L206.02,249.32z M206.02,299.33c-0.57,0.03-1.14,0.03-1.7,0l0.66-5.3c0.36-2.64-1.47-5.08-4.1-5.49c-2.63-0.3-5,1.6-5.3,4.23
	c0,0-1.99,15.77-3.78,30.74h-61.8c-2.71,0.22-4.73,2.59-4.51,5.3c0.19,2.41,2.1,4.32,4.51,4.51h60.48
	c-0.85,6.68-1.51,12.17-1.77,14.28h-71.33c0.91-7.28,4.64-37.62,6.05-49.1h-0.5c-11.11-0.05-20.08-9.1-20.02-20.21
	c0.05-11.11,9.1-20.08,20.21-20.02c6.06,0.03,11.78,2.78,15.58,7.5c0.5,0.69,1.2,0.69,1.32-0.28c0.67-11.19,10.3-19.72,21.49-19.05
	c9.77,0.59,17.74,8.07,18.93,17.79c-0.74,1.29-1.38,2.63-1.92,4l8.23,4.57c3.47-10.63,14.89-16.44,25.52-12.97
	c10.63,3.47,16.44,14.89,12.97,25.52c-2.72,8.35-10.51,13.99-19.29,13.97H206.02z"/>
</svg>
