<?xml version="1.0" encoding="utf-8"?>
<!-- Generator: Adobe Illustrator 24.3.0, SVG Export Plug-In . SVG Version: 6.00 Build 0)  -->
<svg width="300px" height="300px" version="1.0" id="katman_1" xmlns="http://www.w3.org/2000/svg" xmlns:xlink="http://www.w3.org/1999/xlink" x="0px" y="0px"
	 viewBox="0 0 841.89 595.28" style="enable-background:new 0 0 841.89 595.28;" xml:space="preserve">
<style type="text/css">
	.st0{fill:#1C4798;}
	.st1{fill:#33C0CF;}
	.st2{fill:#FFFFFF;}
</style>
<g id="Layer_2">
	<g id="Layer_1-2">
		<circle class="st0" cx="418.32" cy="297.94" r="270.4"/>
		<path class="st1" d="M418.32,560.77C273.13,560.67,155.5,442.9,155.59,297.7c0.07-105.54,63.24-200.8,160.43-241.94
			c133.79-56.41,287.98,6.31,344.39,140.1c56.36,133.66-6.19,287.71-139.77,344.25C488.27,553.81,453.47,560.83,418.32,560.77z
			 M418.32,39.32c-142.87,0.09-258.61,115.98-258.51,258.85c0.07,103.84,62.22,197.58,157.85,238.05
			c131.64,55.52,283.35-6.19,338.87-137.83C712,266.87,650.45,115.27,518.99,59.65C487.14,46.17,452.9,39.26,418.32,39.32z"/>
		<polygon class="st2" points="220.64,372.63 230.05,369.97 223.65,347.4 235.92,343.92 242.78,368.16 252.19,365.5 242.55,331.43 
			190.21,346.25 192.99,356.08 214.24,350.06 		"/>
		
			<rect x="206.22" y="382.38" transform="matrix(0.8996 -0.4367 0.4367 0.8996 -145.7678 140.8156)" class="st2" width="54.4" height="10.21"/>
		<path class="st2" d="M258.41,432.24c0.77-2.23,1.02-4.6,0.76-6.94c-0.27-2.31-0.84-4.57-1.68-6.73c-0.74-1.92-1.38-3.89-1.9-5.88
			c-0.43-1.57-0.56-3.2-0.39-4.82c0.25-1.38,1.08-2.58,2.28-3.3c0.56-0.38,1.19-0.67,1.84-0.86c0.75-0.21,1.54-0.26,2.31-0.12
			c0.98,0.17,1.91,0.55,2.73,1.11c1.17,0.82,2.18,1.85,2.97,3.03c0.97,1.29,1.61,2.8,1.88,4.4c0.24,1.36,0.1,2.75-0.39,4.04
			l-0.71,1.81l10.87,2.3l0.4-1.5c0.88-2.99,0.83-6.18-0.14-9.15c-0.94-2.72-2.28-5.28-3.96-7.61c-1.65-2.41-3.78-4.47-6.24-6.04
			c-2.01-1.26-4.24-2.12-6.57-2.54c-3.92-0.66-7.93,0.23-11.2,2.49c-2.58,1.68-4.62,4.06-5.89,6.87c-0.92,2.29-1.32,4.75-1.17,7.21
			c0.16,2.37,0.64,4.7,1.43,6.94c0.73,2.1,1.36,4.12,1.87,5.99c0.44,1.55,0.63,3.15,0.56,4.76c-0.14,1.22-0.84,2.31-1.89,2.94
			c-0.79,0.6-1.74,0.98-2.73,1.09c-0.99,0.09-1.98-0.02-2.92-0.33c-0.99-0.33-1.92-0.82-2.75-1.46c-0.83-0.63-1.56-1.37-2.17-2.21
			c-1.07-1.5-1.81-3.22-2.16-5.03c-0.36-1.82-0.19-3.7,0.49-5.43l0.65-1.74l-10.58-2.55l-0.48,1.43c-1.04,3.15-1.14,6.53-0.28,9.73
			c0.84,3.29,2.3,6.38,4.29,9.13c1.47,2.06,3.25,3.87,5.3,5.37c1.91,1.41,4.08,2.43,6.37,3.02c1.27,0.31,2.57,0.47,3.87,0.47
			c1.03,0,2.06-0.1,3.07-0.28c2.49-0.48,4.84-1.51,6.88-3.02C255.45,437.23,257.34,434.94,258.41,432.24z"/>
		<polygon class="st2" points="299,458.15 281.23,443.22 294.89,426.97 287.07,420.39 252.07,462.04 259.88,468.61 274.94,450.7 
			292.71,465.64 277.66,483.54 285.48,490.12 320.47,448.47 312.65,441.9 		"/>
		<path class="st2" d="M348.68,484.01c1.41-1.9,3.17-3.52,5.18-4.76c1.95-1.19,4.13-1.96,6.4-2.26c2.44-0.3,4.92-0.06,7.26,0.69
			c2.04,0.63,3.91,1.7,5.5,3.12c1.58,1.38,2.79,3.14,3.52,5.1l0.57,1.53l9.89-3.64l-0.57-1.54c-1.28-3.45-3.49-6.49-6.37-8.78
			c-2.8-2.28-6.01-4-9.46-5.07c-3.74-1.19-7.67-1.64-11.58-1.32c-3.63,0.31-7.16,1.38-10.35,3.14c-3.19,1.79-6,4.21-8.25,7.09
			c-2.42,3.11-4.24,6.64-5.36,10.42c-3.24,10.48-0.11,21.9,8.03,29.25c5.07,4.4,11.51,6.9,18.21,7.07c0.15,0,0.3,0,0.45-0.01
			c2.24-0.03,4.46-0.31,6.63-0.85c1.7-0.42,3.34-1.04,4.9-1.85c0.97-0.51,1.91-1.08,2.8-1.71l1.29-0.97l-6.23-8.6l-1.34,1.03
			c-1.82,1.42-3.94,2.4-6.2,2.87c-2.37,0.43-4.82,0.25-7.11-0.51c-2.42-0.7-4.67-1.91-6.59-3.54c-1.71-1.48-3.09-3.31-4.05-5.36
			c-0.94-2.07-1.48-4.3-1.57-6.57c-0.1-2.42,0.22-4.83,0.94-7.14C345.98,488.39,347.14,486.07,348.68,484.01z"/>
		<path class="st2" d="M437.93,483.38c-2.5-2.64-5.51-4.74-8.86-6.18c-7.27-3.03-15.42-3.16-22.78-0.37
			c-3.39,1.33-6.47,3.33-9.05,5.89c-2.55,2.57-4.58,5.61-5.98,8.95c-2.92,7.18-3.05,15.19-0.36,22.45c1.28,3.39,3.21,6.49,5.68,9.14
			c2.5,2.64,5.51,4.74,8.86,6.18c3.59,1.54,7.45,2.34,11.36,2.37c0.18,0,0.37,0,0.55,0c3.72,0.03,7.41-0.65,10.87-2
			c3.39-1.33,6.47-3.33,9.05-5.89c2.55-2.57,4.58-5.61,5.98-8.95c2.92-7.18,3.05-15.19,0.36-22.45
			C442.33,489.14,440.4,486.03,437.93,483.38z M416.95,522.04c-4.85,0.02-9.48-2.05-12.71-5.67c-1.54-1.74-2.72-3.77-3.47-5.97
			c-1.62-4.77-1.53-9.96,0.24-14.67c0.82-2.17,2.07-4.17,3.66-5.86c3.26-3.43,7.81-5.34,12.54-5.26l0.35,0
			c4.85-0.02,9.48,2.05,12.71,5.67c1.54,1.75,2.72,3.78,3.47,5.98c1.62,4.77,1.53,9.96-0.24,14.67c-0.82,2.17-2.07,4.17-3.66,5.86
			c-1.59,1.66-3.5,2.98-5.61,3.9C421.94,521.66,419.45,522.13,416.95,522.04z"/>
		<polygon class="st2" points="487.05,463.12 483.67,502.43 458.04,472.37 445.6,476.34 462.13,528.17 471.86,525.06 461.01,491.05 
			485.82,520.61 492.32,518.54 495.44,480.07 506.28,514.08 516.02,510.98 499.49,459.15 		"/>
		<path class="st2" d="M544.34,447.11c-1.03-1.5-2.27-2.86-3.67-4.03c-1.56-1.31-3.39-2.25-5.37-2.73
			c-2.23-0.51-4.54-0.52-6.78-0.02c-2.9,0.68-5.63,1.93-8.05,3.67l-16.26,10.98l30.44,45.08l8.46-5.72l-12.61-18.67l7.79-5.26
			c2.52-1.59,4.69-3.66,6.41-6.09c1.29-1.89,2.15-4.04,2.51-6.3c0.29-2.01,0.11-4.07-0.53-6
			C546.15,450.28,545.35,448.63,544.34,447.11z M536.33,458.89c-0.49,0.94-1.14,1.79-1.93,2.51c-0.91,0.86-1.89,1.64-2.93,2.35
			l-6.18,4.17L517.92,457l6.18-4.17c1.04-0.7,2.13-1.32,3.27-1.84c0.96-0.46,1.99-0.74,3.05-0.85c0.9-0.07,1.8,0.1,2.6,0.51
			c2.01,1.26,3.39,3.31,3.81,5.64C536.91,457.19,536.73,458.09,536.33,458.89z"/>
		<path class="st2" d="M545.68,422.62l23.28,54.7l8.01-8.55l-5.76-12.33l15.13-16.13l12.72,4.9l7.99-8.52l-55.61-20.23
			L545.68,422.62z M576.89,436.73L567,447.28l-7.91-17.4L576.89,436.73z"/>
		<polygon class="st2" points="645.31,349.19 647.33,339.18 624.83,334.64 598.11,308.07 595.65,320.22 613.6,337.56 590.42,346.19 
			588.19,357.25 588.12,357.22 583.5,366.32 617.81,383.74 571.83,389.31 566.57,399.67 615.08,424.3 619.7,415.19 585.35,397.75 
			631.51,391.93 636.63,381.84 589.73,358.03 622.81,344.65 		"/>
		<circle class="st0" cx="419.08" cy="300.17" r="153.33"/>
		<path class="st2" d="M253.47,218.91l-0.21-0.89l-26.97-8.92l-7.1,20.42l9.5,3.14l3.74-10.74l11.26,3.72
			c0.16,1.5,0.13,3.01-0.07,4.51c-0.29,2.21-0.81,4.39-1.55,6.49c-1.57,4.68-5,8.51-9.48,10.58c-2.21,1.02-4.6,1.61-7.04,1.74
			c-2.6,0.14-5.21-0.23-7.68-1.07c-2.43-0.79-4.7-1.99-6.71-3.56c-1.86-1.44-3.41-3.24-4.58-5.28c-2.39-4.24-2.78-9.32-1.09-13.89
			c0.77-2.24,1.9-4.33,3.35-6.2c1.57-1.92,3.53-3.47,5.76-4.55l1.51-0.77l-5.07-9.19l-1.45,0.68c-2.98,1.42-5.63,3.46-7.77,5.97
			c-2.61,3.24-4.59,6.94-5.84,10.92c-1.32,3.68-1.88,7.6-1.63,11.5c0.24,3.64,1.23,7.19,2.92,10.43c1.72,3.23,4.05,6.1,6.87,8.43
			c3.02,2.5,6.49,4.4,10.22,5.6c3.28,1.09,6.71,1.66,10.16,1.66c0.35,0,0.69-0.01,1.04-0.02c3.7-0.11,7.35-0.95,10.72-2.47
			c3.44-1.58,6.53-3.85,9.06-6.66c2.81-3.15,4.94-6.85,6.26-10.85c0.56-1.62,1.02-3.28,1.4-4.95c0.4-1.79,0.69-3.6,0.87-5.42
			c0.17-1.78,0.24-3.56,0.2-5.35C254.05,222.24,253.85,220.56,253.47,218.91z"/>
		<path class="st2" d="M262.79,168.23c0.3-1.87,0.26-3.77-0.12-5.62c-0.38-1.78-1.08-3.48-2.07-5.01c-1-1.54-2.28-2.89-3.76-3.97
			c-1.51-1.09-3.16-1.97-4.91-2.61c-1.95-0.73-4.05-1.01-6.12-0.83c-2.33,0.25-4.57,1-6.58,2.2c-2.57,1.58-4.8,3.66-6.57,6.1
			l-12.08,15.71l44.66,32.67l6.29-8.18l-18.49-13.53l3.16-4.11l26.49,3.12l7.74-10.06l-28.62-2.43
			C262.27,170.58,262.61,169.42,262.79,168.23z M245.36,179.55l-10.82-7.92l4.59-5.97c0.77-1.01,1.63-1.95,2.55-2.81
			c0.78-0.75,1.69-1.36,2.67-1.8c0.85-0.36,1.78-0.49,2.69-0.37c1.19,0.21,2.3,0.71,3.24,1.47c1,0.66,1.81,1.56,2.35,2.62
			c0.38,0.82,0.51,1.73,0.39,2.63c-0.16,1.06-0.51,2.07-1.02,3.01c-0.6,1.11-1.28,2.18-2.06,3.18L245.36,179.55z"/>
		<polygon class="st2" points="301.4,153.32 293.41,142.76 313.45,128.35 307.49,120.48 287.45,134.88 280.17,125.26 301.7,109.77 
			295.74,101.9 265.78,123.45 298.92,167.26 329.95,144.94 323.99,137.06 		"/>
		<polygon class="st2" points="349.2,126.21 344.69,113.85 368.15,105.72 364.79,96.5 341.33,104.63 337.22,93.36 362.42,84.62 
			359.06,75.4 323.98,87.56 342.69,138.86 379.02,126.26 375.66,117.04 		"/>
		<polygon class="st2" points="427.85,68.38 428.75,106.88 401.4,68.97 389.48,69.23 390.75,123.66 401.23,123.43 400.33,84.88 
			427.98,122.84 439.59,122.58 438.33,68.15 		"/>
		<polygon class="st2" points="523.81,90.75 501.28,121.99 503.53,83.69 493.48,80.18 470.32,111.2 473.2,73.12 462.9,69.53 
			459.48,126.15 468.97,129.46 492.78,97.57 490.53,136.97 500.02,140.28 534.11,94.34 		"/>
		<polygon class="st2" points="555.33,110.76 522.02,154.45 530.43,160.55 563.74,116.86 		"/>
		<path class="st2" d="M582.39,203.48l1.66-0.07l-0.29-10.63l-1.73,0.09c-2.36,0.15-4.72-0.24-6.91-1.13
			c-2.25-0.98-4.22-2.5-5.73-4.43c-1.64-1.94-2.85-4.21-3.53-6.65c-0.59-2.19-0.7-4.48-0.32-6.71c0.4-2.25,1.24-4.39,2.47-6.31
			c1.32-2.06,2.99-3.88,4.93-5.37c2.07-1.63,4.4-2.88,6.89-3.72c2.3-0.78,4.72-1.12,7.15-1.01c4.89,0.23,9.45,2.58,12.48,6.43
			c1.36,1.66,2.33,3.61,2.85,5.69c0.53,2.03,0.54,4.17,0.03,6.2l-0.4,1.59l10.49,2.58l0.41-1.6c0.91-3.57,0.8-7.33-0.31-10.85
			c-1.06-3.48-2.78-6.72-5.08-9.54c-2.49-3.11-5.56-5.7-9.04-7.63c-3.27-1.8-6.87-2.9-10.59-3.25c-3.74-0.32-7.51,0.09-11.1,1.2
			c-3.84,1.2-7.42,3.09-10.58,5.58c-2.77,2.16-5.12,4.81-6.93,7.83c-3.82,6.25-4.98,13.77-3.22,20.88
			c1.82,6.69,5.97,12.5,11.72,16.39c1.91,1.24,3.96,2.27,6.11,3.04c1.69,0.61,3.44,1.03,5.22,1.24c1.23,0.12,2.18,0.18,2.91,0.18
			C582.1,203.49,582.25,203.49,582.39,203.48z"/>
		<polygon class="st2" points="644.54,230.62 624.06,237.87 615.93,216.03 636.41,208.78 632.83,199.17 580.36,217.75 
			583.93,227.36 606.49,219.37 614.62,241.21 592.06,249.2 595.64,258.81 648.11,240.23 		"/>
		<circle class="st1" cx="419.05" cy="300.2" r="142.3"/>
		<path class="st2" d="M553.65,289.88c-0.44-1.79-2.02-3.07-3.87-3.14c-2.41-0.09-4.83-0.05-7.24,0.1
			c-7.96,0.52-15.77,2.39-23.1,5.54c-3.45,1.48-6.78,3.21-9.96,5.2c-3.47,2.17-6.75,4.6-9.84,7.28c-5.6-5.38-12.27-9.51-19.58-12.13
			l-0.1-0.04l-0.33-0.12c-18.24-6.35-38.48-2.66-53.31,9.72c-1.53,1.28-1.74,3.56-0.46,5.09c0.55,0.65,1.31,1.09,2.15,1.24
			c1.84,0.32,3.66,0.75,5.44,1.3c0.08,0.03,0.16,0.07,0.25,0.09c12.93,3.75,23.21,13.6,27.49,26.37c0.46,1.38,0.86,2.81,1.19,4.26
			l0,0.01c-0.24,0.15-0.46,0.33-0.67,0.53c-8.19,8.02-19.2,12.52-30.66,12.54c-0.78,0-1.55-0.01-2.32-0.05
			c-2.06-0.1-4.1-0.34-6.12-0.73l-0.04-0.01c-0.31-0.06-0.61-0.13-0.92-0.19c-0.23-0.05-0.47-0.09-0.7-0.15
			c-0.31-0.07-0.62-0.15-0.93-0.23c-0.22-0.06-0.44-0.11-0.66-0.17c-0.32-0.09-0.64-0.18-0.95-0.28c-0.21-0.06-0.42-0.12-0.62-0.18
			c-0.33-0.1-0.65-0.21-0.97-0.32c-0.2-0.07-0.39-0.13-0.59-0.2c-0.33-0.12-0.66-0.24-0.99-0.37c-0.18-0.07-0.36-0.13-0.54-0.2
			c-0.33-0.13-0.66-0.27-0.99-0.41c-0.17-0.07-0.35-0.14-0.53-0.22c-0.33-0.14-0.65-0.3-0.97-0.45c-0.17-0.08-0.35-0.16-0.52-0.24
			c-0.33-0.16-0.66-0.33-0.99-0.5c-0.16-0.08-0.32-0.16-0.48-0.24c-0.97-0.52-1.92-1.07-2.85-1.66c-5.11-3.22-9.51-7.45-12.93-12.43
			l-0.19-0.28c-2.97-4.38-5.14-9.25-6.39-14.4c-0.02-0.12-0.04-0.22-0.07-0.32l-0.01-0.04l-0.07-0.25l-0.01-0.02l-0.06-0.26
			l-0.01-0.03c-1.56-7.07-1.39-14.41,0.49-21.4c3.66-13.51,13.45-24.52,26.44-29.73l0.38-0.15c1.35-0.52,2.73-0.98,4.14-1.36
			c0.16-0.04,0.31-0.09,0.47-0.13c3.27-0.86,6.63-1.34,10-1.44c0.39-0.01,0.77-0.02,1.16-0.02c0.34,0,0.67,0,1,0.01l0.26,0.01
			c0.12,0.03,0.24,0.06,0.36,0.08l0.81,0.16c1.58,0.44,3.18,0.84,4.79,1.21l0.05,0.01c0.61,0.14,1.22,0.27,1.84,0.39l0.21,0.04
			c0.56,0.11,1.13,0.22,1.69,0.32l0.46,0.08c0.48,0.09,0.97,0.17,1.46,0.25c0.29,0.05,0.58,0.09,0.87,0.13
			c0.35,0.05,0.71,0.11,1.06,0.16c0.65,0.09,1.3,0.17,1.95,0.25l0.01,0c9.62,1.14,19.36,0.83,28.9-0.92
			c6.16-1.14,12.18-2.87,18-5.19c2.14-0.86,3.17-3.29,2.31-5.43c-0.1-0.26-0.24-0.51-0.39-0.74c-2.26-3.41-4.69-6.7-7.3-9.86
			c5.08-2.72,9.96-5.81,14.58-9.26c1.85-1.38,2.22-4,0.84-5.84c-0.01-0.02-0.03-0.03-0.04-0.05c-8.7-11.27-19.57-20.68-31.98-27.66
			c-12.69-7.17-26.73-11.61-41.24-13.04c-14.86-1.49-29.86,0.18-44.03,4.89c-19.16,5-36.97,14.22-52.12,26.98
			c-17.74,14.84-30.87,34.44-37.83,56.5l-1.58,5.08l5.05-1.61c5.02-1.6,10.14-2.9,15.32-3.89c-1.05,6.14-1.56,12.36-1.54,18.58
			c0.07,24.42,8.5,48.08,23.89,67.05c6.79,10.93,15.29,20.7,25.18,28.93c14.06,11.99,31.4,19.49,49.78,21.52l5.3,0.5l-2.64-4.64
			c-1.38-2.43-2.69-4.91-3.92-7.45c0.59,0.02,1.2,0.03,1.81,0.03c3.77-0.02,7.54-0.27,11.28-0.76c0.42,0.17,0.88,0.26,1.33,0.26
			c0.09,0,0.18,0,0.26-0.01c19.2-1.41,37.66-8.02,53.38-19.13c15.28-10.83,27.47-25.46,35.34-42.45c0.23-0.49,2.75-5.54,2.82-5.7
			l0.01-0.01c6.48-16.61,18.21-30.64,33.41-39.96C553.31,293.55,554.1,291.68,553.65,289.88z"/>
		<path class="st0" d="M456.2,231.72c4.94-0.05,8.92-4.09,8.87-9.04c-0.01-0.98-0.18-1.96-0.51-2.88l-8.35,3.54l3.55-8.75
			c-1.14-0.51-2.37-0.76-3.62-0.76c-4.94,0.04-8.91,4.08-8.87,9.02C447.31,227.75,451.29,231.71,456.2,231.72L456.2,231.72z"/>
		<path class="st0" d="M553.65,289.88c-0.44-1.79-2.02-3.07-3.87-3.14c-2.41-0.09-4.83-0.05-7.24,0.1
			c-7.96,0.52-15.77,2.39-23.1,5.54c-3.45,1.48-6.78,3.21-9.96,5.2c-3.47,2.17-6.75,4.6-9.84,7.28c-5.6-5.38-12.27-9.51-19.58-12.13
			l-0.1-0.04l-0.33-0.12c-18.24-6.35-38.48-2.66-53.31,9.72c-1.53,1.28-1.74,3.56-0.46,5.09c0.55,0.65,1.31,1.09,2.15,1.24
			c1.84,0.32,3.66,0.75,5.44,1.3c0.08,0.03,0.16,0.07,0.25,0.09c12.93,3.75,23.21,13.6,27.49,26.37c0.46,1.38,0.86,2.81,1.19,4.26
			l0,0.01c-0.24,0.15-0.46,0.33-0.67,0.53c-8.19,8.02-19.2,12.52-30.66,12.54c-0.78,0-1.55-0.01-2.32-0.05
			c-2.06-0.1-4.1-0.34-6.12-0.73l-0.04-0.01c-0.31-0.06-0.61-0.13-0.92-0.19c-0.23-0.05-0.47-0.09-0.7-0.15
			c-0.31-0.07-0.62-0.15-0.93-0.23c-0.22-0.06-0.44-0.11-0.66-0.17c-0.32-0.09-0.64-0.18-0.95-0.28c-0.21-0.06-0.42-0.12-0.62-0.18
			c-0.33-0.1-0.65-0.21-0.97-0.32c-0.2-0.07-0.39-0.13-0.59-0.2c-0.33-0.12-0.66-0.24-0.99-0.37c-0.18-0.07-0.36-0.13-0.54-0.2
			c-0.33-0.13-0.66-0.27-0.99-0.41c-0.17-0.07-0.35-0.14-0.53-0.22c-0.33-0.14-0.65-0.3-0.97-0.45c-0.17-0.08-0.35-0.16-0.52-0.24
			c-0.33-0.16-0.66-0.33-0.99-0.5c-0.16-0.08-0.32-0.16-0.48-0.24c-0.97-0.52-1.92-1.07-2.85-1.66c-5.11-3.22-9.51-7.45-12.93-12.43
			l-0.19-0.28c-2.97-4.38-5.14-9.25-6.39-14.4c-0.02-0.12-0.04-0.22-0.07-0.32l-0.01-0.04l-0.07-0.25l-0.01-0.02l-0.06-0.26
			l-0.01-0.03c-1.56-7.07-1.39-14.41,0.49-21.4c3.66-13.51,13.45-24.52,26.44-29.73l0.38-0.15c1.35-0.52,2.73-0.98,4.14-1.36
			c0.16-0.04,0.31-0.09,0.47-0.13c3.27-0.86,6.63-1.34,10-1.44c0.39-0.01,0.77-0.02,1.16-0.02c0.34,0,0.67,0,1,0.01l0.26,0.01
			c0.12,0.03,0.24,0.06,0.36,0.08l0.81,0.16c1.58,0.44,3.18,0.84,4.79,1.21l0.05,0.01c0.61,0.14,1.22,0.27,1.84,0.39l0.21,0.04
			c0.56,0.11,1.13,0.22,1.69,0.32l0.46,0.08c0.48,0.09,0.97,0.17,1.46,0.25c0.29,0.05,0.58,0.09,0.87,0.13
			c0.35,0.05,0.71,0.11,1.06,0.16c0.65,0.09,1.3,0.17,1.95,0.25l0.01,0c9.62,1.14,19.36,0.83,28.9-0.92
			c6.16-1.14,12.18-2.87,18-5.19c2.14-0.86,3.17-3.29,2.31-5.43c-0.1-0.26-0.24-0.51-0.39-0.74c-2.26-3.41-4.69-6.7-7.3-9.86
			c5.08-2.72,9.96-5.81,14.58-9.26c1.85-1.38,2.22-4,0.84-5.84c-0.01-0.02-0.03-0.03-0.04-0.05c-8.7-11.27-19.57-20.68-31.98-27.66
			c-12.69-7.17-26.73-11.61-41.24-13.04c-14.86-1.49-29.86,0.18-44.03,4.89c-19.16,5-36.97,14.22-52.12,26.98
			c-17.74,14.84-30.87,34.44-37.83,56.5l-1.58,5.08l5.05-1.61c5.02-1.6,10.14-2.9,15.32-3.89c-1.05,6.14-1.56,12.36-1.54,18.58
			c0.07,24.42,8.5,48.08,23.89,67.05c6.79,10.93,15.29,20.7,25.18,28.93c14.06,11.99,31.4,19.49,49.78,21.52l5.3,0.5l-2.64-4.64
			c-1.38-2.43-2.69-4.91-3.92-7.45c0.59,0.02,1.2,0.03,1.81,0.03c3.77-0.02,7.54-0.27,11.28-0.76c0.42,0.17,0.88,0.26,1.33,0.26
			c0.09,0,0.18,0,0.26-0.01c19.2-1.41,37.66-8.02,53.38-19.13c15.28-10.83,27.47-25.46,35.34-42.45c0.23-0.49,2.75-5.54,2.82-5.7
			l0.01-0.01c6.48-16.61,18.21-30.64,33.41-39.96C553.31,293.55,554.1,291.68,553.65,289.88z M431.07,362.06
			c10.7-0.02,21.14-3.33,29.89-9.49c-0.1,3.39-0.6,6.75-1.5,10.02l-0.01,0.04c-0.04,0.16-0.09,0.31-0.12,0.44
			c-0.25,0.88-0.53,1.75-0.84,2.61c-1.35-2.57-3.51-4.62-6.15-5.83c2.26-1.04,4.18-2.69,5.54-4.78c-3.86,2.22-8,3.95-12.3,5.13
			c-0.06,5.35-4.11,9.81-9.43,10.39c-0.29-3.27-1.81-6.3-4.24-8.51l-0.4,0c-0.92,0-1.85-0.02-2.77-0.07
			C429.51,362.04,430.29,362.06,431.07,362.06z M424.07,361.62c1.11,0.14,2.23,0.26,3.34,0.33c5.41,2.36,7.89,8.66,5.52,14.08
			c-1.56,3.57-4.94,6.01-8.82,6.37c-0.43-4.6-3.28-8.63-7.48-10.56C420.72,369.95,423.53,366.08,424.07,361.62L424.07,361.62z
			 M407.62,358.56c4.44,1.37,9.02,2.24,13.65,2.61l0.46,0.08c-0.53,4.65-4.04,8.4-8.65,9.22l-0.08,0.01
			c-0.19,0.03-0.39,0.06-0.58,0.08v-2.87c-1.14-3.48-3.68-6.33-7.01-7.86C406.19,359.49,406.93,359.06,407.62,358.56L407.62,358.56z
			 M404.67,357.57c-1.17,0.57-2.43,0.93-3.72,1.05c-0.11-0.96-0.33-1.91-0.66-2.82C401.73,356.44,403.19,357.03,404.67,357.57
			L404.67,357.57z M400.99,361.09c5.88,0.56,10.2,5.77,9.65,11.66c-0.48,5.12-4.54,9.17-9.66,9.65c-0.43-4.6-3.28-8.63-7.48-10.56
			C397.76,369.87,400.63,365.76,400.99,361.09L400.99,361.09z M389.17,349.59c0.12,0.01,0.24,0.03,0.36,0.04
			c2.31,1.64,4.73,3.13,7.24,4.45c3.32,4.78,2.14,11.35-2.64,14.68c-1.46,1.01-3.14,1.64-4.91,1.83c-0.42-4.68-3.32-8.78-7.6-10.73
			C385.74,357.97,388.6,354.09,389.17,349.59z M379.03,326.56c-5.44-8.82-8.34-18.97-8.36-29.33c-0.02-13.67,4.55-26.95,12.98-37.71
			c8.3-10.64,20.11-17.98,33.33-20.7c0.58,2.61,1.48,5.14,2.67,7.53c-7.15,0.92-14.01,3.42-20.07,7.32
			c-13.8,9.05-22.98,23.65-25.16,40C372.77,304.84,374.37,316.26,379.03,326.56L379.03,326.56z M384.13,246.74
			c-2.52,2.35-4.85,4.9-6.98,7.61c-0.9,1.15-1.77,2.33-2.59,3.53c-1.28-1.67-2.94-3-4.85-3.89c4.26-1.96,7.13-6.07,7.5-10.75
			C379.87,243.51,382.34,244.75,384.13,246.74L384.13,246.74z M381.62,242.01c4.12-1.89,6.97-5.77,7.55-10.26
			c3.47,0.36,6.53,2.4,8.2,5.46c-4.1,2.22-7.95,4.89-11.47,7.95C384.7,243.83,383.25,242.76,381.62,242.01L381.62,242.01z
			 M373.16,260.01c-3.2,5.05-5.73,10.5-7.54,16.2l-0.22,0.03c-0.52-4.57-3.39-8.53-7.57-10.45c4.22-1.93,7.1-5.94,7.58-10.55
			C368.58,255.58,371.43,257.33,373.16,260.01L373.16,260.01z M367.85,323.05c-0.77,0.28-1.56,0.46-2.37,0.55
			c-0.22-4.91-3.17-9.27-7.64-11.31c2.2-1.02,4.08-2.62,5.43-4.64C364.14,312.96,365.68,318.13,367.85,323.05L367.85,323.05z
			 M362.56,292.19c-0.86-1.06-1.88-1.99-3.02-2.73h-1.46c0.27-0.13,0.53-0.27,0.78-0.41c0.29-0.17,0.57-0.35,0.85-0.53
			c1.54-1.05,2.85-2.41,3.82-3.99C363.07,287.05,362.74,289.62,362.56,292.19L362.56,292.19z M363.11,277.68
			c-0.01,5.51-4.2,10.12-9.69,10.65c-0.33-4.72-3.21-8.87-7.5-10.85c4.17-1.92,7.01-5.89,7.47-10.46
			C358.89,267.55,363.1,272.16,363.11,277.68L363.11,277.68z M353.45,289.75c4.03,0.41,7.49,3.05,8.94,6.83c0,0.23-0.01,0.45,0,0.68
			c0.01,2.04,0.11,4.06,0.31,6.07c-1.23,4.28-4.97,7.35-9.4,7.73c-0.69-4.25-3.46-7.89-7.37-9.69
			C350.46,299.28,353.4,294.75,353.45,289.75L353.45,289.75z M353.45,313.53c5.88,0.57,10.18,5.81,9.61,11.69
			c-0.5,5.13-4.59,9.18-9.72,9.62c-0.61-4.37-3.41-8.13-7.41-9.98C350.37,322.81,353.28,318.43,353.45,313.53L353.45,313.53z
			 M365.34,326.1c1.74,0.17,3.42,0.78,4.86,1.76c1.35,2.49,2.87,4.89,4.54,7.18c0.87,5.76-3.09,11.13-8.85,12
			c-0.15,0.02-0.3,0.04-0.45,0.06c-0.33-4.79-3.25-9.03-7.62-11.02C361.86,334.23,364.68,330.48,365.34,326.1L365.34,326.1z
			 M416.71,226.34c-0.09,0.52-0.17,1.05-0.24,1.58c-1.05,0.6-2.2,1.02-3.39,1.23l-0.05,0.01c-0.2,0.03-0.4,0.07-0.6,0.09v-3.15
			c-1.14-3.48-3.68-6.33-7.01-7.86c3.33-1.53,5.87-4.37,7.01-7.85v-2.1c0.16,0.02,0.33,0.04,0.49,0.07l0.17,0.03
			c3.72,0.67,6.8,3.27,8.09,6.82c-0.3,0.44-0.58,0.88-0.86,1.34C418.54,219.57,417.32,222.88,416.71,226.34z M410.69,230.12
			c0,0.58-0.05,1.15-0.14,1.72c-3.81,1.09-7.51,2.52-11.07,4.28c-1.33-2.47-3.43-4.44-5.98-5.61c4.36-2,7.25-6.25,7.52-11.04
			C406.5,220.01,410.68,224.61,410.69,230.12L410.69,230.12z M389.25,229.25c-0.33-4.79-3.25-9.03-7.62-11.02
			c4.03-1.84,6.85-5.59,7.51-9.97c5.8,0.57,10.04,5.73,9.47,11.53C398.12,224.77,394.21,228.71,389.25,229.25z M386.9,230.12
			c-0.01,5.53-4.23,10.15-9.74,10.66c-0.52-4.49-3.35-8.38-7.45-10.27c4.36-2,7.25-6.25,7.52-11.04
			C382.71,220.01,386.89,224.61,386.9,230.12L386.9,230.12z M374.87,242.25c-0.01,5.39-4.07,9.91-9.44,10.49
			c-0.42-4.68-3.32-8.78-7.6-10.73c4.12-1.89,6.97-5.77,7.55-10.26C370.76,232.31,374.86,236.84,374.87,242.25z M363.11,253.9
			c-0.01,5.52-4.21,10.13-9.71,10.65c-0.43-4.6-3.28-8.63-7.48-10.56c4.26-1.96,7.13-6.07,7.5-10.75
			C358.9,243.78,363.1,248.39,363.11,253.9z M351.08,265.74c-0.01,5.4-4.09,9.93-9.46,10.5c-0.52-4.57-3.39-8.53-7.57-10.45
			c4.22-1.93,7.1-5.94,7.58-10.55C346.99,255.82,351.07,260.34,351.08,265.74z M339.32,277.68c-0.01,5.51-4.2,10.12-9.69,10.65
			c-0.27-3.84-2.24-7.36-5.36-9.6c0.14-0.79,0.29-1.58,0.44-2.37c0.04-0.19,0.08-0.38,0.12-0.58c2.7-2.17,4.42-5.32,4.77-8.77
			C335.1,267.55,339.31,272.16,339.32,277.68L339.32,277.68z M335.08,289.04c0.29-0.17,0.57-0.35,0.85-0.53
			c3.29-2.22,5.4-5.82,5.72-9.78c5.08,0.56,9.04,4.67,9.4,9.78c0.02,0.24,0.03,0.48,0.03,0.72l-0.01,0.21l0,0.02h0l0,0.17
			c-0.01,5.37-4.05,9.89-9.39,10.49c-0.1-4.32-2.32-8.3-5.93-10.66h-1.46C334.56,289.33,334.82,289.19,335.08,289.04L335.08,289.04z
			 M351.08,313.12c-0.01,5.38-4.05,9.89-9.4,10.49c-0.22-4.91-3.17-9.27-7.64-11.32c3.93-1.8,6.72-5.42,7.46-9.68
			C346.92,303.12,351.07,307.67,351.08,313.12L351.08,313.12z M351.08,336.6c-0.01,5.38-4.06,9.9-9.41,10.49
			c-0.33-4.79-3.25-9.03-7.62-11.02c4.03-1.84,6.85-5.59,7.51-9.97C346.95,326.64,351.07,331.18,351.08,336.6L351.08,336.6z
			 M353.44,337.31c5.88,0.57,10.19,5.8,9.62,11.68c-0.49,5.12-4.56,9.17-9.69,9.63c-0.52-4.49-3.35-8.38-7.45-10.27
			C350.27,346.34,353.17,342.1,353.44,337.31L353.44,337.31z M365.38,349.59c5.8,0.59,10.02,5.77,9.43,11.57
			c-0.5,4.97-4.42,8.9-9.38,9.43c-0.42-4.68-3.32-8.78-7.6-10.73C361.95,357.97,364.81,354.09,365.38,349.59L365.38,349.59z
			 M377.2,361.09c5.88,0.56,10.2,5.77,9.65,11.66c-0.48,5.12-4.54,9.17-9.66,9.65c-0.43-4.6-3.28-8.63-7.48-10.56
			C373.97,369.87,376.83,365.76,377.2,361.09L377.2,361.09z M386.89,347.65c0,0.1,0.01,0.2,0.01,0.31
			c-0.01,5.53-4.23,10.15-9.74,10.66c-0.52-4.49-3.35-8.38-7.45-10.27c4.09-1.88,6.9-5.76,7.44-10.22c0.8,0.97,1.63,1.91,2.48,2.84
			C381.88,343.37,384.3,345.61,386.89,347.65L386.89,347.65z M427.46,256.48c-5.22,0.33-10.37,1.45-15.26,3.31l-0.13,0.05
			c-0.37,0.14-0.74,0.29-1.11,0.44l-0.24,0.1c-0.34,0.14-0.68,0.29-1.02,0.44l-0.31,0.13c-0.32,0.14-0.64,0.29-0.96,0.44l-0.36,0.17
			c-0.3,0.15-0.6,0.3-0.9,0.45l-0.4,0.2c-0.29,0.15-0.57,0.3-0.85,0.45l-0.43,0.23c-0.27,0.15-0.54,0.3-0.81,0.46l-0.45,0.26
			c-0.26,0.15-0.52,0.31-0.77,0.47l-0.47,0.29c-0.25,0.16-0.49,0.31-0.74,0.47l-0.49,0.32c-0.24,0.16-0.47,0.32-0.7,0.48
			c-0.17,0.12-0.33,0.23-0.5,0.35c-0.23,0.16-0.45,0.32-0.67,0.49c-0.17,0.12-0.34,0.25-0.51,0.38c-0.22,0.16-0.43,0.33-0.64,0.49
			c-0.17,0.13-0.34,0.27-0.51,0.41c-0.21,0.16-0.41,0.33-0.62,0.5c-0.17,0.14-0.35,0.29-0.52,0.44c-0.2,0.17-0.39,0.33-0.59,0.5
			c-0.18,0.15-0.35,0.31-0.52,0.47c-0.19,0.17-0.38,0.34-0.56,0.51c-0.18,0.16-0.35,0.33-0.53,0.5c-0.18,0.17-0.36,0.34-0.53,0.51
			c-0.18,0.17-0.36,0.35-0.53,0.53c-0.17,0.17-0.34,0.34-0.51,0.51c-0.18,0.19-0.36,0.38-0.54,0.57c-0.16,0.17-0.32,0.34-0.48,0.51
			c-0.18,0.2-0.36,0.4-0.55,0.61c-0.15,0.17-0.3,0.33-0.44,0.5c-0.19,0.22-0.38,0.44-0.57,0.67c-0.13,0.16-0.26,0.31-0.39,0.47
			c-0.21,0.26-0.42,0.52-0.62,0.78c-0.1,0.13-0.21,0.26-0.31,0.39c-0.31,0.39-0.61,0.79-0.9,1.2c-0.41,0.56-0.8,1.12-1.18,1.69
			c-2.3,3.4-4.19,7.05-5.64,10.89c-0.6,1.59-1.12,3.21-1.57,4.86c-0.15,0.54-0.28,1.08-0.41,1.62l-0.03,0.14
			c-0.11,0.48-0.22,0.97-0.31,1.45l-0.07,0.36c-0.08,0.42-0.16,0.84-0.23,1.27c-0.04,0.2-0.07,0.41-0.1,0.61
			c-0.06,0.36-0.11,0.72-0.16,1.09c-0.03,0.23-0.06,0.46-0.09,0.69c-0.01-2.74,0.18-5.48,0.57-8.2
			c1.97-14.96,10.36-28.33,22.97-36.62c6.07-3.91,13.01-6.24,20.2-6.8c1.24,1.71,2.63,3.31,4.17,4.76
			C426.9,255.98,427.18,256.23,427.46,256.48L427.46,256.48z M430.4,198.07c13.37,1.31,26.31,5.41,38,12.02
			c10.17,5.72,19.24,13.22,26.76,22.14c-4.61,3.16-23.21,12.73-23.46,14.03s12.51,6.5,14.7,9.49c-3.75,1.24-7.59,2.22-11.48,2.93
			c-5.17,0.95-10.41,1.44-15.67,1.46c-7.12,0.28-14.2-1.14-20.67-4.12c-2.46-1.54-4.62-3.51-6.38-5.82
			c-1.87-2.12-3.49-4.45-4.83-6.94c-1.33-2.48-2.36-5.11-3.06-7.84c-0.15-0.57-0.28-1.15-0.4-1.74c-0.01-0.09-0.01-0.18-0.03-0.27
			c-0.03-0.19-0.08-0.38-0.13-0.57c-0.1-0.53-0.18-1.07-0.26-1.61c-0.09-0.71-0.18-1.42-0.22-2.14c-0.07-0.72-0.08-1.44-0.11-2.17
			c-0.04-2.98,0.26-5.95,0.88-8.86c0.33-1.52,0.74-3.02,1.23-4.5c0.49-1.51,1.07-3.01,1.7-4.56c-1.35,0.99-2.59,2.13-3.69,3.39
			c-0.18,0.2-0.34,0.41-0.51,0.61c-1.32-2.64-3.49-4.75-6.17-5.99c3.81-1.76,6.54-5.25,7.31-9.38
			C426.11,197.71,428.27,197.86,430.4,198.07L430.4,198.07z M356.12,221.98c0.34-0.3,0.68-0.6,1.05-0.91l0.02-0.02
			c5.22-4.48,10.91-8.39,16.95-11.67c0.27-0.15,0.54-0.29,0.81-0.44c6.33-3.36,13.02-6.01,19.94-7.89
			c8.27-2.26,16.8-3.42,25.37-3.46c0.42,0,0.85,0,1.27,0c-0.94,4.15-4.27,7.33-8.46,8.08l-0.03,0.01c-0.21,0.04-0.41,0.07-0.63,0.09
			v-3.47c-0.49-1.49-1.24-2.88-2.22-4.1c-0.96,0.11-1.92,0.23-2.88,0.37c4.3,4.04,4.51,10.81,0.47,15.11
			c-1.8,1.92-4.25,3.1-6.87,3.33c-0.61-4.37-3.41-8.13-7.41-9.98c3.09-1.43,5.49-4,6.7-7.18c-0.99,0.21-1.97,0.44-2.95,0.69
			c-1.68,2.91-4.64,4.86-7.99,5.23c-0.04-0.92-0.18-1.84-0.41-2.74c-0.75,0.26-1.5,0.53-2.25,0.81c1.38,5.75-2.16,11.52-7.9,12.91
			c-0.52,0.12-1.04,0.21-1.58,0.26c-0.37-2.71-1.6-5.23-3.5-7.19c-0.72,0.4-1.44,0.8-2.15,1.22c4.28,3.95,4.54,10.62,0.59,14.9
			c-1.73,1.87-4.08,3.05-6.61,3.33c-0.27-4.08-2.44-7.8-5.86-10.04c-0.65,0.52-1.29,1.05-1.93,1.59l-0.01,0.01
			c5.15,2.9,6.97,9.42,4.08,14.57c-1.73,3.07-4.86,5.09-8.36,5.41c-0.47-4.01-2.78-7.57-6.26-9.63c-0.53,0.6-1.05,1.22-1.57,1.83
			c5.13,2.77,7.03,9.17,4.26,14.3c-1.65,3.06-4.71,5.11-8.17,5.47c-0.29-3.27-1.81-6.31-4.24-8.51c-0.43,0.69-0.84,1.38-1.25,2.08
			c4.19,4.16,4.23,10.92,0.07,15.12c-1.77,1.79-4.11,2.89-6.61,3.12c-0.1-1.04-0.32-2.07-0.67-3.05
			C334.59,246.28,343.93,232.7,356.12,221.98z M317.21,271.88c-4.39,0.77-8.73,1.74-13.01,2.92c7.01-19.02,18.89-35.88,34.43-48.9
			c2.33-1.97,4.73-3.85,7.2-5.65c-13.75,13.67-23.48,30.85-28.15,49.67C317.51,270.57,317.36,271.23,317.21,271.88L317.21,271.88z
			 M322.78,296.29c-0.02-4.97,0.33-9.94,1.06-14.85c2.01,1.83,3.24,4.36,3.43,7.07c0.02,0.24,0.03,0.48,0.03,0.72l-0.01,0.21l0,0.02
			h0l0,0.17c0,3.43-1.67,6.65-4.48,8.62C322.79,297.6,322.78,296.94,322.78,296.29L322.78,296.29z M322.91,300.98
			c4.12-2.24,6.71-6.54,6.76-11.23c5.88,0.58,10.18,5.81,9.6,11.69c-0.5,5.14-4.61,9.19-9.77,9.62c-0.64-3.93-3.06-7.35-6.55-9.27
			C322.94,301.52,322.92,301.25,322.91,300.98L322.91,300.98z M323.17,304.77c4.4,3.38,5.42,9.61,2.32,14.22
			C324.38,314.31,323.6,309.56,323.17,304.77L323.17,304.77z M367.18,388.1c11.83,6.93,24.9,11.5,38.48,13.44
			c0.93,2.05,1.91,4.08,2.93,6.07C393.32,404.85,379.03,398.12,367.18,388.1L367.18,388.1z M413.38,393.91l0.4,0.02
			c-0.6,0-1.19-0.01-1.76-0.03c-1.26-0.11-2.52-0.25-3.78-0.41c-2.11-0.27-4.21-0.61-6.3-1.02c-12.75-2.49-24.87-7.5-35.65-14.75
			c-19.64-13.2-33.86-33.03-40.06-55.86c2.11-2.28,3.32-5.24,3.42-8.34c5.88,0.57,10.18,5.8,9.61,11.68
			c-0.46,4.7-3.94,8.54-8.56,9.46c0.46,1.07,0.94,2.14,1.44,3.19c5.09,1.77,8.06,7.05,6.94,12.32c0.56,0.84,1.13,1.68,1.72,2.51
			c0.39-1,0.65-2.04,0.79-3.1c5.8,0.59,10.02,5.76,9.43,11.55c-0.1,1.02-0.36,2.03-0.75,2.98c0.59,0.61,1.18,1.21,1.78,1.8
			c0.77-1.51,1.23-3.15,1.36-4.83c5.88,0.55,10.2,5.76,9.65,11.64c-0.07,0.75-0.22,1.5-0.45,2.22c0.66,0.49,1.33,0.97,2.01,1.45
			c0.41-1.07,0.68-2.18,0.79-3.32c5.02,0.54,8.97,4.56,9.41,9.59l0.02,0.01c0.21,0.11,0.42,0.22,0.62,0.33
			c0.25,0.13,0.49,0.25,0.74,0.38c0.21,0.11,0.42,0.22,0.63,0.32c0.25,0.12,0.49,0.25,0.74,0.37c0.21,0.1,0.42,0.21,0.63,0.31
			c0.25,0.12,0.5,0.24,0.75,0.35c0.21,0.1,0.43,0.2,0.64,0.3c0.25,0.12,0.5,0.23,0.76,0.35c0.21,0.1,0.43,0.2,0.64,0.29
			c0.25,0.11,0.51,0.22,0.76,0.33c0.22,0.09,0.43,0.19,0.65,0.28c0.25,0.11,0.51,0.21,0.76,0.32c0.22,0.09,0.43,0.18,0.65,0.27
			c0.26,0.11,0.51,0.21,0.77,0.31c0.22,0.09,0.43,0.18,0.65,0.26c0.26,0.1,0.52,0.2,0.77,0.3c0.22,0.08,0.44,0.17,0.66,0.25
			l0.3,0.11c-1.34-1.95-3.19-3.51-5.35-4.5c4.22-1.93,7.1-5.94,7.58-10.55c5.79,0.6,10,5.79,9.39,11.58
			c-0.24,2.35-1.27,4.55-2.92,6.25l0.52,0.14c0.23,0.06,0.47,0.12,0.7,0.18c0.26,0.07,0.52,0.13,0.78,0.19l0.57,0.14
			c1.53-1.93,2.47-4.25,2.71-6.69c4.81,0.46,8.72,4.07,9.56,8.82c0.25,0.03,0.5,0.05,0.75,0.08l0.51,0.05l0.1-0.04
			c0.01,0,0.19,0.02,0.54,0.06v-2.35c-1.14-3.48-3.68-6.32-7.01-7.84c3.33-1.53,5.86-4.37,7.01-7.84v-2.69
			c0.19,0.02,0.38,0.05,0.57,0.08l0.09,0.02c5.74,1.01,9.57,6.48,8.55,12.22C420.88,389.67,417.61,393.03,413.38,393.91
			L413.38,393.91z M430.6,392.04c-3.74,0.92-7.55,1.49-11.4,1.7c2.78-2.16,4.55-5.37,4.9-8.87c3.89,0.37,7.27,2.82,8.83,6.41
			C432.17,391.55,431.39,391.81,430.6,392.04L430.6,392.04z M445.57,384.07c-3.15,2.6-6.66,4.74-10.42,6.34
			c-1.28-3-3.64-5.41-6.6-6.77c4.22-1.93,7.1-5.94,7.58-10.55c5.37,0.57,9.44,5.1,9.45,10.5
			C445.58,383.74,445.58,383.9,445.57,384.07L445.57,384.07z M447.86,382.03c-0.54-4.46-3.36-8.31-7.44-10.2
			c4.26-1.96,7.13-6.07,7.5-10.75c4.39,0.43,8.08,3.5,9.29,7.74c-2.09,4.61-4.98,8.82-8.55,12.42
			C448.4,381.51,448.13,381.77,447.86,382.03L447.86,382.03z M463.24,384.37c-2.9,1.45-5.87,2.76-8.9,3.92
			c9.14-8.32,14.91-19.71,16.2-32c0.02-0.18,0.04-0.37,0.05-0.55l0.02-0.24l0-0.02c0.4-5.48-0.02-10.99-1.23-16.35l-0.02-0.1
			c-0.38-1.67-0.84-3.33-1.37-4.93c-4.87-14.56-16.39-25.92-31.01-30.57l0.41-0.24c4.82-2.82,10.1-4.78,15.6-5.77
			c0.5-0.09,0.99-0.17,1.49-0.25c0.2,0.55,0.59,1.01,1.1,1.29c25.36,15.13,33.65,47.96,18.52,73.33c-1.27,2.13-2.69,4.16-4.24,6.1
			C467.88,380.34,465.66,382.47,463.24,384.37L463.24,384.37z M479.75,372.14c13.49-25.51,6.51-57.04-16.49-74.48
			c7.18,0.1,14.25,1.7,20.77,4.69c1.99,1.06,3.9,2.26,5.72,3.59c4.41,10.67,5.83,22.35,4.1,33.77
			C492.25,351.62,487.36,362.85,479.75,372.14L479.75,372.14z M491.59,363.06c3.61-7.12,6.02-14.78,7.13-22.68
			c1.35-9.23,0.85-18.63-1.48-27.66c3.1,3.45,5.68,7.33,7.67,11.52c1.53,4.03,2.64,8.21,3.31,12.47c0.08,0.48,0.17,0.96,0.26,1.46
			C504.14,347.26,498.45,355.66,491.59,363.06L491.59,363.06z M506.58,309.88c2.31-1.9,4.74-3.64,7.27-5.22
			c1.21-0.75,2.44-1.47,3.69-2.14c-2.89,4.13-5.22,8.62-6.93,13.36C509.39,313.8,508.05,311.79,506.58,309.88L506.58,309.88z
			 M514.31,323.32c-0.41-1-0.85-1.98-1.32-2.95c0.32-0.25,0.55-0.59,0.67-0.97c2.4-7.74,6.59-14.81,12.23-20.63
			c3.07-1.12,6.22-2,9.43-2.62C526.67,303.81,519.54,313.03,514.31,323.32L514.31,323.32z"/>
		<circle class="st1" cx="626.7" cy="286.82" r="7.59"/>
		<circle class="st1" cx="208.7" cy="298.07" r="7.59"/>
		<path class="st1" d="M419.08,455.61c-85.85,0-155.44-69.59-155.44-155.44c0-85.85,69.59-155.44,155.44-155.44
			s155.44,69.59,155.44,155.44c0,41.22-16.38,80.76-45.53,109.91C499.9,439.33,460.33,455.72,419.08,455.61z M419.08,148.95
			c-83.52,0-151.22,67.7-151.22,151.22c0,83.52,67.7,151.22,151.22,151.22c83.52,0,151.22-67.7,151.22-151.22
			c0-40.11-15.93-78.57-44.29-106.93C497.71,164.79,459.21,148.84,419.08,148.95z"/>
	</g>
</g>
</svg>
