<?xml version="1.0" encoding="UTF-8" standalone="no"?>


<svg
   xmlns:dc="http://purl.org/dc/elements/1.1/"
   xmlns:cc="http://creativecommons.org/ns#"
   xmlns:rdf="http://www.w3.org/1999/02/22-rdf-syntax-ns#"
   xmlns:svg="http://www.w3.org/2000/svg"
   xmlns="http://www.w3.org/2000/svg"
   xmlns:sodipodi="http://sodipodi.sourceforge.net/DTD/sodipodi-0.dtd"
   xmlns:inkscape="http://www.inkscape.org/namespaces/inkscape"
   id="svg4618"
   version="1.1"
   inkscape:version="0.47 r22583"
   width="224"
   height="65"
   xml:space="preserve"
   sodipodi:docname="ShintÅ_Nippon_Logo.svg"><metadata
     id="metadata4624"><rdf:RDF><cc:Work
         rdf:about=""><dc:format>image/svg+xml</dc:format><dc:type
           rdf:resource="http://purl.org/dc/dcmitype/StillImage" /><dc:title /></cc:Work></rdf:RDF></metadata><defs
     id="defs4622"><inkscape:perspective
       sodipodi:type="inkscape:persp3d"
       inkscape:vp_x="0 : 0.5 : 1"
       inkscape:vp_y="0 : 1000 : 0"
       inkscape:vp_z="1 : 0.5 : 1"
       inkscape:persp3d-origin="0.5 : 0.33333333 : 1"
       id="perspective4626" /><clipPath
       clipPathUnits="userSpaceOnUse"
       id="clipPath4634"><path
         d="m 0,0 595.276,0 0,841.89 L 0,841.89 0,0 z"
         id="path4636" /></clipPath><clipPath
       clipPathUnits="userSpaceOnUse"
       id="clipPath4642"><path
         d="m 102.047,122.953 393.286,0 0,551.693 -393.286,0 0,-551.693 z"
         id="path4644" /></clipPath><clipPath
       clipPathUnits="userSpaceOnUse"
       id="clipPath4650"><path
         d="m 102.047,674.646 0,-597.05 397.285,0 0,597.05 -397.285,0 z"
         id="path4652" /></clipPath><clipPath
       clipPathUnits="userSpaceOnUse"
       id="clipPath4664"><path
         d="m 212.598,24.154 182.339,0 0,88.524 -182.339,0 0,-88.524 z"
         id="path4666" /></clipPath><clipPath
       clipPathUnits="userSpaceOnUse"
       id="clipPath4672"><path
         d="m 212.598,112.028 178.589,0 0,-86.421 -178.589,0 0,86.421 z"
         id="path4674" /></clipPath><clipPath
       clipPathUnits="userSpaceOnUse"
       id="clipPath4680"><path
         d="m 212.598,112.028 178.589,0 0,-86.421 -178.589,0 0,86.421 z"
         id="path4682" /></clipPath><clipPath
       clipPathUnits="userSpaceOnUse"
       id="clipPath4688"><path
         d="m 189.933,150.263 227.489,0 0,-160.851 -227.489,0 0,160.851 z"
         id="path4690" /></clipPath></defs><sodipodi:namedview
     pagecolor="#ffffff"
     bordercolor="#666666"
     borderopacity="1"
     objecttolerance="10"
     gridtolerance="10"
     guidetolerance="10"
     inkscape:pageopacity="0"
     inkscape:pageshadow="2"
     inkscape:window-width="1280"
     inkscape:window-height="962"
     id="namedview4620"
     showgrid="false"
     inkscape:zoom="3.588117"
     inkscape:cx="74.107057"
     inkscape:cy="29.383511"
     inkscape:window-x="-8"
     inkscape:window-y="-8"
     inkscape:window-maximized="1"
     inkscape:current-layer="g5268" /><g
     id="g4628"
     inkscape:groupmode="layer"
     inkscape:label="mani3"
     transform="matrix(1.25,0,0,-1.25,-265.7475,124.5625)"><g
       clip-path="url(#clipPath4634)"
       id="g4632"><g
         id="g5268"
         transform="translate(0.3055,0.2675)"><path
           d="m 216.087,70.992 2.354,-3.852 2.399,0 -2.361,3.852 -2.392,0 z"
           style="fill:#000000;fill-opacity:1;fill-rule:nonzero;stroke:none"
           id="path4694" /><path
           d="m 231.578,70.992 -2.355,-3.852 2.394,0 2.362,3.852 -2.401,0 z"
           style="fill:#000000;fill-opacity:1;fill-rule:nonzero;stroke:none"
           id="path4696" /><path
           d="m 215.06,59.351 0,4.295 20.301,0 0,-4.295 2.39,0 0.019,6.693 -0.019,0 -11.52,0 0,5.364 -2.401,0 0,-5.364 -11.232,0 0.006,-6.693 2.456,0 z"
           style="fill:#000000;fill-opacity:1;fill-rule:nonzero;stroke:none"
           id="path4698" /><path
           d="m 231.07,56.234 -11.797,0 0,3.425 11.797,0 0,-3.425 z m 6.729,-1.739 -2.433,0 0,-3.881 -7.01,0 0,3.224 5.104,0 0,8.231 -16.585,0 0.03,-8.231 2.393,0 -4.65,-5.652 2.696,0 4.638,5.652 3.979,0 0,-5.619 11.857,0.004 -0.019,6.272 z"
           style="fill:#000000;fill-opacity:1;fill-rule:nonzero;stroke:none"
           id="path4700" /><path
           d="m 217.835,90.19 4.381,0 0,-2.625 -4.381,0 0,2.625 z m -2.699,-15.818 3.381,6.951 0,-6.991 2.393,0 0.006,6.991 2.094,-3.516 2.392,0 -2.495,3.516 3.239,0 0,2.395 -5.236,0 0,1.452 5.236,0 0,2.395 -1.538,0 0,2.625 1.538,0 0,2.393 -5.095,0 0,2.538 -2.396,0 0,-2.538 -5.416,0 0,-2.393 2.206,0 0,-2.625 -2.206,0 0,-2.395 5.278,0 0,-1.452 -5.278,0 0,-2.395 3.268,0 -3.761,-6.951 2.39,0 z"
           style="fill:#000000;fill-opacity:1;fill-rule:nonzero;stroke:none"
           id="path4702" /><path
           d="m 227.535,94.458 0,-20.126 2.39,0 0,11.173 5.24,0 0,-11.173 2.396,0 0,11.173 2.226,0 0,2.395 -9.862,0 0,4.145 9.96,0 0,2.394 -12.35,0.019 z"
           style="fill:#000000;fill-opacity:1;fill-rule:nonzero;stroke:none"
           id="path4704" /><g
           id="g3695"><rect
             transform="scale(1,-1)"
             y="-94.961998"
             x="249.101"
             height="46.644001"
             width="60.674995"
             id="rect3670"
             style="opacity:1;fill:#ffffff;fill-opacity:1;stroke:none" /><g
             id="g3692"><path
               d="m 303.354,54.882 -47.833,0 0,33.622 47.833,0 0,-33.622 z m -54.253,-6.564 60.675,0 0,46.644 -60.675,0 0,-46.644 z"
               style="fill:#000000;fill-opacity:1;fill-rule:nonzero;stroke:none"
               id="path4692" /></g><path
             id="path4706"
             style="fill:#e60012;fill-opacity:1;fill-rule:nonzero;stroke:none"
             d="m 279.431,82.949 c -5.837,0 -10.57,-4.729 -10.57,-10.566 0,-5.836 4.733,-10.566 10.57,-10.566 5.838,0 10.569,4.73 10.569,10.566 0,5.837 -4.731,10.566 -10.569,10.566" /><path
             id="path4708"
             style="fill:#e60012;fill-opacity:1;fill-rule:nonzero;stroke:none"
             d="m 294.701,81.94 c -1.458,0 -2.644,-1.188 -2.644,-2.639 0,-1.463 1.186,-2.644 2.644,-2.644 1.461,0 2.64,1.181 2.64,2.644 0,1.451 -1.179,2.639 -2.64,2.639" /></g><path
           d="m 356.73,85.207 25.492,-36.628 8.965,0 -25.501,36.628 19.196,0 0,6.461 -28.152,0 0,7.447 -6.464,0 0,-7.447 -28.159,0 0,-6.461 19.193,0 -25.493,-36.628 8.96,0 25.499,36.628 0,-26.49 -11.868,0 0,-6.458 11.868,0 0,-4.609 6.464,0 0,4.609 11.858,0 0,6.458 -11.858,0 0,26.49 z"
           style="fill:#000000;fill-opacity:1;fill-rule:nonzero;stroke:none"
           id="path4710" /></g></g></g></svg>